<svg id="Layer_1" enable-background="new 0 0 512 512" height="512" viewBox="0 0 512 512" width="512" xmlns="http://www.w3.org/2000/svg"><g><path d="m512 256c0 21.893-25.447 40.149-30.844 60.34-5.584 20.892 7.162 49.394-3.421 67.686-10.735 18.555-41.892 21.701-56.951 36.759-15.058 15.058-18.205 46.215-36.759 56.95-18.291 10.583-46.794-2.163-67.685 3.421-20.191 5.397-38.447 30.844-60.34 30.844s-40.149-25.447-60.34-30.844c-20.892-5.584-49.394 7.162-67.686-3.421-18.554-10.735-21.701-41.893-36.759-56.951s-46.215-18.204-56.95-36.759c-10.583-18.291 2.163-46.794-3.421-67.685-5.397-20.191-30.844-38.447-30.844-60.34s25.447-40.149 30.844-60.34c5.584-20.892-7.162-49.394 3.421-67.686 10.735-18.554 41.893-21.701 56.951-36.759s18.205-46.215 36.759-56.95c18.291-10.583 46.794 2.163 67.685-3.421 20.191-5.396 38.447-30.844 60.34-30.844s40.149 25.447 60.34 30.844c20.892 5.584 49.394-7.162 67.686 3.421 18.554 10.735 21.701 41.893 36.759 56.951s46.215 18.205 56.95 36.759c10.583 18.291-2.163 46.794 3.421 67.685 5.397 20.191 30.844 38.447 30.844 60.34z" fill="#42a5f5"/><g><path d="m481.156 316.34c5.397-20.191 30.844-38.447 30.844-60.34s-25.447-40.149-30.844-60.34c-5.584-20.891 7.162-49.394-3.421-67.685-10.735-18.554-41.892-21.701-56.95-36.759s-18.205-46.216-36.759-56.951c-10.563-6.112-24.532-4.444-38.473-3.018 2.666.678 5.204 1.65 7.568 3.018 18.554 10.735 21.7 41.893 36.758 56.951s46.215 18.205 56.95 36.759c10.583 18.291-2.163 46.794 3.421 67.685 5.397 20.191 30.844 38.448 30.844 60.34s-25.447 40.149-30.844 60.34c-5.584 20.892 7.162 49.394-3.421 67.686-10.735 18.554-41.893 21.701-56.951 36.759s-18.205 46.215-36.759 56.95c-2.364 1.367-4.901 2.34-7.567 3.018 13.941 1.426 27.91 3.094 38.473-3.018 18.554-10.735 21.701-41.892 36.759-56.95s46.215-18.205 56.951-36.759c10.583-18.292-2.163-46.795 3.421-67.686z" fill="#2196f3"/></g><path d="m323.431 41.049h-134.862c-2.586 0-4.682-2.096-4.682-4.682v-21.542c0-2.586 2.096-4.682 4.682-4.682h134.861c2.586 0 4.682 2.096 4.682 4.682v21.541c.001 2.587-2.096 4.683-4.681 4.683z" fill="#e2e2e2"/><g fill="#e6b988"><path d="m243.36 75.573h-30.905v-71.426c0-2.29 1.857-4.147 4.147-4.147h22.611c2.29 0 4.147 1.857 4.147 4.147z"/><path d="m299.545 75.573h-30.905v-71.426c0-2.29 1.857-4.147 4.147-4.147h22.611c2.29 0 4.147 1.857 4.147 4.147z"/></g><path d="m256 55.115c-110.95 0-200.885 89.935-200.885 200.885s89.935 200.885 200.885 200.885 200.885-89.935 200.885-200.885-89.935-200.885-200.885-200.885zm0 370.865c-93.726 0-169.98-76.254-169.98-169.98s76.254-169.98 169.98-169.98 169.98 76.254 169.98 169.98-76.254 169.98-169.98 169.98z" fill="#edc397"/><g><path d="m256 55.115c-5.199 0-10.353.198-15.453.586 103.73 7.889 185.433 94.548 185.433 200.299s-81.703 192.41-185.433 200.3c5.1.388 10.253.586 15.453.586 110.95 0 200.885-89.935 200.885-200.885s-89.935-200.886-200.885-200.886z" fill="#e6b988"/></g><path d="m270.49 154.857 20.182 40.894c2.354 4.769 6.903 8.075 12.166 8.839l45.129 6.558c13.254 1.926 18.546 18.213 8.955 27.562l-32.656 31.831c-3.808 3.712-5.546 9.061-4.647 14.303l7.709 44.947c2.264 13.2-11.591 23.266-23.445 17.034l-40.365-21.221c-4.707-2.475-10.331-2.475-15.039 0l-40.365 21.221c-11.854 6.232-25.709-3.834-23.445-17.034l7.709-44.947c.899-5.242-.839-10.59-4.647-14.303l-32.656-31.831c-9.59-9.348-4.298-25.636 8.955-27.562l45.129-6.558c5.263-.765 9.813-4.07 12.166-8.839l20.182-40.894c5.93-12.01 23.056-12.01 28.983 0z" fill="#ff8724"/></g></svg>